<mxfile host="app.diagrams.net" modified="2021-04-25T19:41:25.175Z" agent="5.0 (Windows NT 10.0; Win64; x64) AppleWebKit/537.36 (KHTML, like Gecko) Chrome/90.0.4430.85 Safari/537.36" etag="As_olopYQJN3L0diW_ok" version="14.6.6" type="github">
  <diagram id="gtasFVrYzhCBtZtqAzm9" name="Page-1">
    <mxGraphModel dx="886" dy="744" grid="1" gridSize="10" guides="1" tooltips="1" connect="1" arrows="1" fold="1" page="1" pageScale="1" pageWidth="850" pageHeight="1100" background="#F1FAEE" math="0" shadow="0">
      <root>
        <mxCell id="0" />
        <mxCell id="1" parent="0" />
        <mxCell id="adT5vrjqrJ_HymWS0yyy-1" value="&lt;h3&gt;DevProdEng PMO&lt;/h3&gt;" style="shape=process;whiteSpace=wrap;html=1;backgroundOutline=1;rotation=0;fillColor=#A8DADC;strokeColor=#457B9D;fontColor=#1D3557;" vertex="1" parent="1">
          <mxGeometry x="341" y="95" width="190" height="90" as="geometry" />
        </mxCell>
        <mxCell id="adT5vrjqrJ_HymWS0yyy-15" style="edgeStyle=orthogonalEdgeStyle;curved=0;rounded=1;sketch=0;orthogonalLoop=1;jettySize=auto;html=1;exitX=1;exitY=0.5;exitDx=0;exitDy=0;entryX=0.347;entryY=1;entryDx=0;entryDy=0;entryPerimeter=0;fontColor=#1D3557;strokeColor=#457B9D;fillColor=#A8DADC;startArrow=classic;startFill=1;strokeWidth=2;" edge="1" parent="1" source="adT5vrjqrJ_HymWS0yyy-2" target="adT5vrjqrJ_HymWS0yyy-1">
          <mxGeometry relative="1" as="geometry" />
        </mxCell>
        <mxCell id="adT5vrjqrJ_HymWS0yyy-2" value="" style="rounded=0;whiteSpace=wrap;html=1;fillColor=#A8DADC;strokeColor=#457B9D;fontColor=#1D3557;" vertex="1" parent="1">
          <mxGeometry x="300" y="230" width="80" height="80" as="geometry" />
        </mxCell>
        <mxCell id="adT5vrjqrJ_HymWS0yyy-3" value="" style="whiteSpace=wrap;html=1;aspect=fixed;fillColor=#A8DADC;strokeColor=#457B9D;fontColor=#1D3557;" vertex="1" parent="1">
          <mxGeometry x="330" y="350" width="80" height="80" as="geometry" />
        </mxCell>
        <mxCell id="adT5vrjqrJ_HymWS0yyy-20" style="edgeStyle=orthogonalEdgeStyle;curved=0;rounded=1;sketch=0;orthogonalLoop=1;jettySize=auto;html=1;exitX=0;exitY=0.5;exitDx=0;exitDy=0;fontColor=#1D3557;strokeColor=#457B9D;fillColor=#A8DADC;startArrow=classic;startFill=1;strokeWidth=2;" edge="1" parent="1" source="adT5vrjqrJ_HymWS0yyy-4" target="adT5vrjqrJ_HymWS0yyy-1">
          <mxGeometry relative="1" as="geometry">
            <Array as="points">
              <mxPoint x="450" y="270" />
            </Array>
          </mxGeometry>
        </mxCell>
        <mxCell id="adT5vrjqrJ_HymWS0yyy-4" value="" style="whiteSpace=wrap;html=1;aspect=fixed;fillColor=#A8DADC;strokeColor=#457B9D;fontColor=#1D3557;" vertex="1" parent="1">
          <mxGeometry x="480" y="230" width="80" height="80" as="geometry" />
        </mxCell>
        <mxCell id="adT5vrjqrJ_HymWS0yyy-5" value="" style="whiteSpace=wrap;html=1;aspect=fixed;fillColor=#A8DADC;strokeColor=#457B9D;fontColor=#1D3557;" vertex="1" parent="1">
          <mxGeometry x="450" y="350" width="80" height="80" as="geometry" />
        </mxCell>
        <mxCell id="adT5vrjqrJ_HymWS0yyy-6" value="" style="shape=image;verticalLabelPosition=bottom;verticalAlign=top;aspect=fixed;imageAspect=0;image=https://external-content.duckduckgo.com/iu/?u=https%3A%2F%2Fimage.flaticon.com%2Ficons%2Fpng%2F512%2F528%2F528548.png&amp;f=1&amp;nofb=1;labelBackgroundColor=#F1FAEE;fillColor=#A8DADC;strokeColor=#457B9D;fontColor=#1D3557;" vertex="1" parent="1">
          <mxGeometry x="309" y="239" width="62" height="62" as="geometry" />
        </mxCell>
        <mxCell id="adT5vrjqrJ_HymWS0yyy-16" style="edgeStyle=orthogonalEdgeStyle;curved=0;rounded=1;sketch=0;orthogonalLoop=1;jettySize=auto;html=1;fontColor=#1D3557;strokeColor=#457B9D;fillColor=#A8DADC;startArrow=classic;startFill=1;strokeWidth=2;" edge="1" parent="1" target="adT5vrjqrJ_HymWS0yyy-1">
          <mxGeometry relative="1" as="geometry">
            <mxPoint x="410" y="390" as="sourcePoint" />
            <Array as="points">
              <mxPoint x="420" y="390" />
            </Array>
          </mxGeometry>
        </mxCell>
        <mxCell id="adT5vrjqrJ_HymWS0yyy-7" value="" style="shape=image;verticalLabelPosition=bottom;verticalAlign=top;aspect=fixed;imageAspect=0;image=https://external-content.duckduckgo.com/iu/?u=https://image.flaticon.com/icons/png/512/528/528548.png&amp;f=1&amp;nofb=1;labelBackgroundColor=#F1FAEE;fillColor=#A8DADC;strokeColor=#457B9D;fontColor=#1D3557;" vertex="1" parent="1">
          <mxGeometry x="339" y="359" width="62" height="62" as="geometry" />
        </mxCell>
        <mxCell id="adT5vrjqrJ_HymWS0yyy-9" value="" style="shape=image;verticalLabelPosition=bottom;verticalAlign=top;aspect=fixed;imageAspect=0;image=https://external-content.duckduckgo.com/iu/?u=https://image.flaticon.com/icons/png/512/528/528548.png&amp;f=1&amp;nofb=1;labelBackgroundColor=#F1FAEE;fillColor=#A8DADC;strokeColor=#457B9D;fontColor=#1D3557;flipH=1;" vertex="1" parent="1">
          <mxGeometry x="489" y="239" width="62" height="62" as="geometry" />
        </mxCell>
        <mxCell id="adT5vrjqrJ_HymWS0yyy-17" style="edgeStyle=orthogonalEdgeStyle;curved=0;rounded=1;sketch=0;orthogonalLoop=1;jettySize=auto;html=1;fontColor=#1D3557;strokeColor=#457B9D;fillColor=#A8DADC;startArrow=classic;startFill=1;strokeWidth=2;" edge="1" parent="1" target="adT5vrjqrJ_HymWS0yyy-1">
          <mxGeometry relative="1" as="geometry">
            <mxPoint x="450" y="390" as="sourcePoint" />
            <Array as="points">
              <mxPoint x="440" y="390" />
            </Array>
          </mxGeometry>
        </mxCell>
        <mxCell id="adT5vrjqrJ_HymWS0yyy-10" value="" style="shape=image;verticalLabelPosition=bottom;verticalAlign=top;aspect=fixed;imageAspect=0;image=https://external-content.duckduckgo.com/iu/?u=https://image.flaticon.com/icons/png/512/528/528548.png&amp;f=1&amp;nofb=1;labelBackgroundColor=#F1FAEE;fillColor=#A8DADC;strokeColor=#457B9D;fontColor=#1D3557;flipH=1;" vertex="1" parent="1">
          <mxGeometry x="459" y="359" width="62" height="62" as="geometry" />
        </mxCell>
        <mxCell id="adT5vrjqrJ_HymWS0yyy-12" value="&lt;b&gt;Failure&lt;br&gt;Trends&lt;/b&gt;" style="ellipse;shape=cloud;whiteSpace=wrap;html=1;rounded=0;sketch=0;fontColor=#1D3557;strokeColor=#457B9D;fillColor=#A8DADC;" vertex="1" parent="1">
          <mxGeometry x="260" y="70" width="120" height="80" as="geometry" />
        </mxCell>
        <mxCell id="adT5vrjqrJ_HymWS0yyy-13" value="&lt;b&gt;Build&lt;br&gt;Analysis&lt;br&gt;&lt;/b&gt;" style="ellipse;shape=cloud;whiteSpace=wrap;html=1;rounded=0;sketch=0;fontColor=#1D3557;strokeColor=#457B9D;fillColor=#A8DADC;" vertex="1" parent="1">
          <mxGeometry x="365" y="30" width="120" height="80" as="geometry" />
        </mxCell>
        <mxCell id="adT5vrjqrJ_HymWS0yyy-14" value="&lt;b&gt;Tooling&lt;br&gt;Support&lt;/b&gt;" style="ellipse;shape=cloud;whiteSpace=wrap;html=1;rounded=0;sketch=0;fontColor=#1D3557;strokeColor=#457B9D;fillColor=#A8DADC;" vertex="1" parent="1">
          <mxGeometry x="480" y="60" width="120" height="80" as="geometry" />
        </mxCell>
        <mxCell id="adT5vrjqrJ_HymWS0yyy-22" value="&lt;b&gt;Build&lt;br&gt;Scan&lt;/b&gt;" style="ellipse;shape=cloud;whiteSpace=wrap;html=1;rounded=0;sketch=0;fontColor=#1D3557;strokeColor=#457B9D;fillColor=#A8DADC;" vertex="1" parent="1">
          <mxGeometry x="220" y="210" width="110" height="70" as="geometry" />
        </mxCell>
        <mxCell id="adT5vrjqrJ_HymWS0yyy-24" value="&lt;b&gt;Build&lt;br&gt;Scan&lt;/b&gt;" style="ellipse;shape=cloud;whiteSpace=wrap;html=1;rounded=0;sketch=0;fontColor=#1D3557;strokeColor=#457B9D;fillColor=#A8DADC;" vertex="1" parent="1">
          <mxGeometry x="255" y="320" width="110" height="70" as="geometry" />
        </mxCell>
        <mxCell id="adT5vrjqrJ_HymWS0yyy-25" value="&lt;b&gt;Build&lt;br&gt;Scan&lt;/b&gt;" style="ellipse;shape=cloud;whiteSpace=wrap;html=1;rounded=0;sketch=0;fontColor=#1D3557;strokeColor=#457B9D;fillColor=#A8DADC;flipH=1;" vertex="1" parent="1">
          <mxGeometry x="531" y="190" width="110" height="70" as="geometry" />
        </mxCell>
        <mxCell id="adT5vrjqrJ_HymWS0yyy-26" value="&lt;b&gt;Build&lt;br&gt;Scan&lt;/b&gt;" style="ellipse;shape=cloud;whiteSpace=wrap;html=1;rounded=0;sketch=0;fontColor=#1D3557;strokeColor=#457B9D;fillColor=#A8DADC;flipH=1;" vertex="1" parent="1">
          <mxGeometry x="500" y="310" width="110" height="70" as="geometry" />
        </mxCell>
      </root>
    </mxGraphModel>
  </diagram>
</mxfile>
